# Blender 4.3.2
# www.blender.org
mtllib car1.mtl
o Untitled
v 0.700000 0.000000 -1.800000
v 0.700000 -0.000000 1.700000
v 0.700000 1.000000 1.100000
v 0.700000 1.000000 1.700000
v 0.700000 1.600000 -1.800000
v 0.700000 1.600000 1.100000
v -0.700000 0.000000 -1.800000
v -0.700000 -0.000000 1.700000
v -0.700000 1.000000 1.100000
v -0.700000 1.000000 1.700000
v -0.700000 1.600000 -1.800000
v -0.700000 1.600000 1.100000
v 0.700000 0.000000 -1.800000
v 0.700000 1.600000 -1.800000
v 0.500000 0.000000 -1.800000
v 0.500000 0.200000 -1.800000
v 0.500000 0.500000 -1.800000
v 0.500000 1.600000 -1.800000
v 0.300000 0.000000 -1.800000
v 0.300000 0.200000 -1.800000
v 0.300000 0.500000 -1.800000
v 0.300000 1.600000 -1.800000
v 0.100000 0.000000 -1.800000
v 0.100000 0.200000 -1.800000
v 0.100000 0.500000 -1.800000
v 0.100000 1.600000 -1.800000
v -0.100000 0.000000 -1.800000
v -0.100000 0.200000 -1.800000
v -0.100000 0.500000 -1.800000
v -0.100000 1.600000 -1.800000
v -0.300000 0.000000 -1.800000
v -0.300000 0.200000 -1.800000
v -0.300000 0.500000 -1.800000
v -0.300000 1.600000 -1.800000
v -0.500000 0.000000 -1.800000
v -0.500000 0.200000 -1.800000
v -0.500000 0.500000 -1.800000
v -0.500000 1.600000 -1.800000
v -0.700000 0.000000 -1.800000
v -0.700000 1.600000 -1.800000
v 0.700000 1.000000 1.100000
v 0.700000 1.600000 1.100000
v 0.500000 1.000000 1.100000
v 0.500000 1.600000 1.100000
v 0.300000 1.000000 1.100000
v 0.300000 1.600000 1.100000
v 0.100000 1.000000 1.100000
v 0.100000 1.600000 1.100000
v -0.100000 1.000000 1.100000
v -0.100000 1.600000 1.100000
v -0.300000 1.000000 1.100000
v -0.300000 1.600000 1.100000
v -0.500000 1.000000 1.100000
v -0.500000 1.600000 1.100000
v -0.700000 1.000000 1.100000
v -0.700000 1.600000 1.100000
v 0.700000 -0.000000 1.700000
v 0.700000 1.000000 1.700000
v 0.500000 -0.000000 1.700000
v 0.500000 1.000000 1.700000
v 0.300000 -0.000000 1.700000
v 0.300000 1.000000 1.700000
v 0.100000 -0.000000 1.700000
v 0.100000 1.000000 1.700000
v -0.100000 -0.000000 1.700000
v -0.100000 1.000000 1.700000
v -0.300000 -0.000000 1.700000
v -0.300000 1.000000 1.700000
v -0.500000 -0.000000 1.700000
v -0.500000 1.000000 1.700000
v -0.700000 -0.000000 1.700000
v -0.700000 1.000000 1.700000
v 0.700000 0.000000 -1.800000
v 0.500000 0.000000 -1.800000
v 0.300000 0.000000 -1.800000
v 0.100000 0.000000 -1.800000
v -0.100000 0.000000 -1.800000
v -0.300000 0.000000 -1.800000
v -0.500000 0.000000 -1.800000
v -0.700000 0.000000 -1.800000
v 0.700000 -0.000000 1.700000
v 0.500000 -0.000000 1.700000
v 0.300000 -0.000000 1.700000
v 0.100000 -0.000000 1.700000
v -0.100000 -0.000000 1.700000
v -0.300000 -0.000000 1.700000
v -0.500000 -0.000000 1.700000
v -0.700000 -0.000000 1.700000
v 0.700000 1.000000 1.100000
v 0.500000 1.000000 1.100000
v 0.300000 1.000000 1.100000
v 0.100000 1.000000 1.100000
v -0.100000 1.000000 1.100000
v -0.300000 1.000000 1.100000
v -0.500000 1.000000 1.100000
v -0.700000 1.000000 1.100000
v 0.700000 1.000000 1.700000
v 0.500000 1.000000 1.700000
v 0.300000 1.000000 1.700000
v 0.100000 1.000000 1.700000
v -0.100000 1.000000 1.700000
v -0.300000 1.000000 1.700000
v -0.500000 1.000000 1.700000
v -0.700000 1.000000 1.700000
v 0.700000 1.600000 -1.800000
v 0.500000 1.600000 -1.800000
v 0.300000 1.600000 -1.800000
v 0.100000 1.600000 -1.800000
v -0.100000 1.600000 -1.800000
v -0.300000 1.600000 -1.800000
v -0.500000 1.600000 -1.800000
v -0.700000 1.600000 -1.800000
v 0.700000 1.600000 1.100000
v 0.500000 1.600000 1.100000
v 0.300000 1.600000 1.100000
v 0.100000 1.600000 1.100000
v -0.100000 1.600000 1.100000
v -0.300000 1.600000 1.100000
v -0.500000 1.600000 1.100000
v -0.700000 1.600000 1.100000
vn 1.0000 -0.0000 -0.0000
vn -1.0000 -0.0000 -0.0000
vn -0.0000 -0.0000 -1.0000
vn -0.0000 -0.0000 1.0000
vn -0.0000 -1.0000 -0.0000
vn -0.0000 1.0000 -0.0000
vt 0.146484 0.500000
vt 0.857422 0.500000
vt 0.208984 0.500000
vt 0.916016 0.500000
vt 0.427734 0.500000
vt 0.595703 0.500000
vt 0.744141 0.500000
vt 0.798828 0.500000
s 1
usemtl palette
f 3/1/1 2/1/1 1/1/1
f 4/1/1 2/1/1 3/1/1
f 5/1/1 3/1/1 1/1/1
f 6/1/1 3/1/1 5/1/1
f 7/2/2 8/2/2 9/2/2
f 9/2/2 8/2/2 10/2/2
f 7/2/2 9/2/2 11/2/2
f 11/2/2 9/2/2 12/2/2
f 15/1/3 14/1/3 13/1/3
f 16/1/3 14/1/3 15/1/3
f 17/1/3 14/1/3 16/1/3
f 18/1/3 14/1/3 17/1/3
f 19/3/3 16/3/3 15/3/3
f 20/4/3 17/4/3 16/4/3
f 20/3/3 16/3/3 19/3/3
f 21/3/3 18/3/3 17/3/3
f 21/4/3 17/4/3 20/4/3
f 22/3/3 18/3/3 21/3/3
f 23/5/3 20/5/3 19/5/3
f 24/4/3 21/4/3 20/4/3
f 24/5/3 20/5/3 23/5/3
f 25/5/3 22/5/3 21/5/3
f 25/4/3 21/4/3 24/4/3
f 26/5/3 22/5/3 25/5/3
f 27/6/3 24/6/3 23/6/3
f 28/4/3 25/4/3 24/4/3
f 28/6/3 24/6/3 27/6/3
f 29/6/3 26/6/3 25/6/3
f 29/4/3 25/4/3 28/4/3
f 30/6/3 26/6/3 29/6/3
f 31/7/3 28/7/3 27/7/3
f 32/4/3 29/4/3 28/4/3
f 32/7/3 28/7/3 31/7/3
f 33/7/3 30/7/3 29/7/3
f 33/4/3 29/4/3 32/4/3
f 34/7/3 30/7/3 33/7/3
f 35/8/3 32/8/3 31/8/3
f 36/4/3 33/4/3 32/4/3
f 36/8/3 32/8/3 35/8/3
f 37/8/3 34/8/3 33/8/3
f 37/4/3 33/4/3 36/4/3
f 38/8/3 34/8/3 37/8/3
f 39/2/3 36/2/3 35/2/3
f 39/2/3 37/2/3 36/2/3
f 39/2/3 38/2/3 37/2/3
f 40/2/3 38/2/3 39/2/3
f 41/1/4 42/1/4 43/1/4
f 43/1/4 42/1/4 44/1/4
f 43/3/4 44/3/4 45/3/4
f 45/3/4 44/3/4 46/3/4
f 45/5/4 46/5/4 47/5/4
f 47/5/4 46/5/4 48/5/4
f 47/6/4 48/6/4 49/6/4
f 49/6/4 48/6/4 50/6/4
f 49/7/4 50/7/4 51/7/4
f 51/7/4 50/7/4 52/7/4
f 51/8/4 52/8/4 53/8/4
f 53/8/4 52/8/4 54/8/4
f 53/2/4 54/2/4 55/2/4
f 55/2/4 54/2/4 56/2/4
f 57/1/4 58/1/4 59/1/4
f 59/1/4 58/1/4 60/1/4
f 59/3/4 60/3/4 61/3/4
f 61/3/4 60/3/4 62/3/4
f 61/5/4 62/5/4 63/5/4
f 63/5/4 62/5/4 64/5/4
f 63/6/4 64/6/4 65/6/4
f 65/6/4 64/6/4 66/6/4
f 65/7/4 66/7/4 67/7/4
f 67/7/4 66/7/4 68/7/4
f 67/8/4 68/8/4 69/8/4
f 69/8/4 68/8/4 70/8/4
f 69/2/4 70/2/4 71/2/4
f 71/2/4 70/2/4 72/2/4
f 81/1/5 74/1/5 73/1/5
f 82/3/5 75/3/5 74/3/5
f 82/1/5 74/1/5 81/1/5
f 83/5/5 76/5/5 75/5/5
f 83/3/5 75/3/5 82/3/5
f 84/6/5 77/6/5 76/6/5
f 84/5/5 76/5/5 83/5/5
f 85/7/5 78/7/5 77/7/5
f 85/6/5 77/6/5 84/6/5
f 86/8/5 79/8/5 78/8/5
f 86/7/5 78/7/5 85/7/5
f 87/2/5 80/2/5 79/2/5
f 87/8/5 79/8/5 86/8/5
f 88/2/5 80/2/5 87/2/5
f 89/1/6 90/1/6 97/1/6
f 90/3/6 91/3/6 98/3/6
f 97/1/6 90/1/6 98/1/6
f 91/5/6 92/5/6 99/5/6
f 98/3/6 91/3/6 99/3/6
f 92/6/6 93/6/6 100/6/6
f 99/5/6 92/5/6 100/5/6
f 93/7/6 94/7/6 101/7/6
f 100/6/6 93/6/6 101/6/6
f 94/8/6 95/8/6 102/8/6
f 101/7/6 94/7/6 102/7/6
f 95/2/6 96/2/6 103/2/6
f 102/8/6 95/8/6 103/8/6
f 103/2/6 96/2/6 104/2/6
f 105/1/6 106/1/6 113/1/6
f 106/3/6 107/3/6 114/3/6
f 113/1/6 106/1/6 114/1/6
f 107/5/6 108/5/6 115/5/6
f 114/3/6 107/3/6 115/3/6
f 108/6/6 109/6/6 116/6/6
f 115/5/6 108/5/6 116/5/6
f 109/7/6 110/7/6 117/7/6
f 116/6/6 109/6/6 117/6/6
f 110/8/6 111/8/6 118/8/6
f 117/7/6 110/7/6 118/7/6
f 111/2/6 112/2/6 119/2/6
f 118/8/6 111/8/6 119/8/6
f 119/2/6 112/2/6 120/2/6
